<?xml version="1.0" encoding="UTF-8" standalone="no"?>
<svg xmlns="http://www.w3.org/2000/svg" xmlns:xlink="http://www.w3.org/1999/xlink"  version="1.2" baseProfile="tiny" viewBox ="0 0 1327.000000 882.000000">
<title>pyqtgraph SVG export</title>
<desc>Generated with Qt and pyqtgraph</desc>
<style>
    image {
        image-rendering: crisp-edges;
        image-rendering: -moz-crisp-edges;
        image-rendering: pixelated;
    }
</style>
<rect width="100%" height="100%" style="fill:rgba(255, 255, 255, 1.000000)" />
<defs>
</defs>
<g fill="none" fill-rule="evenodd" id="PlotItem_1" stroke="black" stroke-linecap="square" stroke-linejoin="bevel" stroke-width="1">
    <g fill="none" fill-rule="evenodd" id="ViewBox_1" stroke="black" stroke-linecap="square" stroke-linejoin="bevel" stroke-width="1">
        <g fill="none" font-family="Cantarell" font-size="14.6667" font-style="normal" font-weight="400" stroke="none">
            <path d="M49.2656,1.0 L1325.9956,1.0 L1325.9956,861.0 L49.2656,861.0 L49.2656,1.0 " fill-rule="evenodd" vector-effect="non-scaling-stroke"/>
        </g>
        <clipPath id="ViewBox_1_clip">
            <path d="M49.2656,1.0 L1326.0,1.0 L1326.0,861.0 L49.2656,861.0 L49.2656,1.0 " fill-rule="evenodd" stroke-width="1.0" vector-effect="none"/>
        </clipPath>
        <g clip-path="url(#ViewBox_1_clip)">
            <g fill="none" fill-rule="evenodd" id="ChildGroup_1" stroke="black" stroke-linecap="square" stroke-linejoin="bevel" stroke-width="1">
                <g fill="none" fill-rule="evenodd" id="QGraphicsPathItem_1" stroke="black" stroke-linecap="square" stroke-linejoin="bevel" stroke-width="1">
                    <g fill="none" font-family="Cantarell" font-size="14.6667" font-style="normal" font-weight="400" stroke="#808080" stroke-linecap="round" stroke-linejoin="bevel" stroke-opacity="1" stroke-width="6">
                        <path d="M197.79790000000003,431.0 L93.6889,431.0 M197.79790000000003,431.0 L301.9069,431.0 M614.2339000000001,378.9455 L510.1249,431.0 M614.2339000000001,378.9455 L718.3429,326.89099999999996 M718.3429,639.2180000000001 L718.3429,743.327 M718.3429,639.2180000000001 L718.3429,535.109 M718.3429,222.78199999999998 L718.3429,326.89099999999996 M718.3429,222.78199999999998 L718.3429,118.673 M822.4519,378.9455 L718.3429,326.89099999999996 M822.4519,378.9455 L926.5609000000001,431.0 M822.4519,483.0545 L718.3429,535.109 M822.4519,483.0545 L926.5609000000001,431.0 M1208.1757450000002,357.603155 L1134.7789000000002,431.0 M1208.1757450000002,357.603155 L1281.5725900000002,284.20631000000003 M1208.1757450000002,504.396845 L1134.7789000000002,431.0 M1208.1757450000002,504.396845 L1281.5725900000002,577.79369 M614.2339000000001,483.0545 L510.1249,431.0 M614.2339000000001,483.0545 L718.3429,535.109 M406.0159,431.0 L301.9069,431.0 M406.0159,431.0 L510.1249,431.0 M1030.6699,431.0 L926.5609000000001,431.0 M1030.6699,431.0 L1134.7789000000002,431.0 " fill-rule="evenodd" vector-effect="non-scaling-stroke"/>
                    </g>
                </g>
                <g fill="none" fill-rule="evenodd" id="ScatterPlotItem_2" stroke="black" stroke-linecap="square" stroke-linejoin="bevel" stroke-width="1">
                    


                    <g fill="#ebebeb" fill-opacity="1" font-family="Cantarell" font-size="14.6667" font-style="normal" font-weight="400" stroke="#808080" stroke-linecap="square" stroke-linejoin="bevel" stroke-opacity="1" stroke-width="1">
                        

                        <path d="M399.57411,434.84048 L413.517,431.0 L399.57411,427.15952 M413.517,431.0 C413.517,426.85787 410.15913,423.5 406.017,423.5 C401.87487,423.5 398.517,426.85787 398.517,431.0 C398.517,435.14213 401.87487,438.5 406.017,438.5 C410.15913,438.5 413.517,435.14213 413.517,431.0 " fill-rule="nonzero" vector-effect="non-scaling-stroke"/>
                        

                    </g>
                    


                    <g fill="#ebebeb" fill-opacity="1" font-family="Cantarell" font-size="14.6667" font-style="normal" font-weight="400" stroke="#808080" stroke-linecap="square" stroke-linejoin="bevel" stroke-opacity="1" stroke-width="1">
                        

                        <path d="M1024.22711,434.84048 L1038.17,431.0 L1024.22711,427.15952 M1038.17,431.0 C1038.17,426.85787 1034.81213,423.5 1030.67,423.5 C1026.5278700000001,423.5 1023.1700000000001,426.85787 1023.1700000000001,431.0 C1023.1700000000001,435.14213 1026.5278700000001,438.5 1030.67,438.5 C1034.81213,438.5 1038.17,435.14213 1038.17,431.0 " fill-rule="nonzero" vector-effect="non-scaling-stroke"/>
                        

                    </g>
                    

                </g>
                <g fill="none" fill-rule="evenodd" id="ScatterPlotItem_4" stroke="black" stroke-linecap="square" stroke-linejoin="bevel" stroke-width="1">
                    


                    <g fill="#ebebeb" fill-opacity="1" font-family="Cantarell" font-size="14.6667" font-style="normal" font-weight="400" stroke="#808080" stroke-linecap="square" stroke-linejoin="bevel" stroke-opacity="1" stroke-width="1">
                        

                        <path d="M619.26715,489.76321 L622.621255,483.055 L605.850745,483.055 L609.20485,476.34679 L619.26715,489.76321 " fill-rule="evenodd" vector-effect="non-scaling-stroke"/>
                        

                    </g>
                    

                </g>
                <g fill="none" fill-rule="evenodd" id="ScatterPlotItem_6" stroke="black" stroke-linecap="square" stroke-linejoin="bevel" stroke-width="1">

</g>
                <g fill="none" fill-rule="evenodd" id="ScatterPlotItem_8" stroke="black" stroke-linecap="square" stroke-linejoin="bevel" stroke-width="1">
                    


                    <g fill="#ebebeb" fill-opacity="1" font-family="Cantarell" font-size="14.6667" font-style="normal" font-weight="400" stroke="#808080" stroke-linecap="square" stroke-linejoin="bevel" stroke-opacity="1" stroke-width="1">
                        

                        <path d="M200.298,431.0 C200.298,432.38071 199.17871,433.5 197.798,433.5 C196.41729,433.5 195.298,432.38071 195.298,431.0 C195.298,429.61929 196.41729,428.5 197.798,428.5 C199.17871,428.5 200.298,429.61929 200.298,431.0 " fill-rule="evenodd" vector-effect="non-scaling-stroke"/>
                        

                    </g>
                    


                    <g fill="#ebebeb" fill-opacity="1" font-family="Cantarell" font-size="14.6667" font-style="normal" font-weight="400" stroke="#808080" stroke-linecap="square" stroke-linejoin="bevel" stroke-opacity="1" stroke-width="1">
                        

                        <path d="M616.736,378.945 C616.736,380.32571 615.61671,381.445 614.236,381.445 C612.85529,381.445 611.736,380.32571 611.736,378.945 C611.736,377.56428999999997 612.85529,376.445 614.236,376.445 C615.61671,376.445 616.736,377.56428999999997 616.736,378.945 " fill-rule="evenodd" vector-effect="non-scaling-stroke"/>
                        

                    </g>
                    


                    <g fill="#ebebeb" fill-opacity="1" font-family="Cantarell" font-size="14.6667" font-style="normal" font-weight="400" stroke="#808080" stroke-linecap="square" stroke-linejoin="bevel" stroke-opacity="1" stroke-width="1">
                        

                        <path d="M720.845,639.219 C720.845,640.5997100000001 719.72571,641.719 718.345,641.719 C716.96429,641.719 715.845,640.5997100000001 715.845,639.219 C715.845,637.83829 716.96429,636.719 718.345,636.719 C719.72571,636.719 720.845,637.83829 720.845,639.219 " fill-rule="evenodd" vector-effect="non-scaling-stroke"/>
                        

                    </g>
                    


                    <g fill="#ebebeb" fill-opacity="1" font-family="Cantarell" font-size="14.6667" font-style="normal" font-weight="400" stroke="#808080" stroke-linecap="square" stroke-linejoin="bevel" stroke-opacity="1" stroke-width="1">
                        

                        <path d="M720.845,222.781 C720.845,224.16171 719.72571,225.281 718.345,225.281 C716.96429,225.281 715.845,224.16171 715.845,222.781 C715.845,221.40029 716.96429,220.281 718.345,220.281 C719.72571,220.281 720.845,221.40029 720.845,222.781 " fill-rule="evenodd" vector-effect="non-scaling-stroke"/>
                        

                    </g>
                    


                    <g fill="#ebebeb" fill-opacity="1" font-family="Cantarell" font-size="14.6667" font-style="normal" font-weight="400" stroke="#808080" stroke-linecap="square" stroke-linejoin="bevel" stroke-opacity="1" stroke-width="1">
                        

                        <path d="M824.954,378.945 C824.954,380.32571 823.83471,381.445 822.454,381.445 C821.0732899999999,381.445 819.954,380.32571 819.954,378.945 C819.954,377.56428999999997 821.0732899999999,376.445 822.454,376.445 C823.83471,376.445 824.954,377.56428999999997 824.954,378.945 " fill-rule="evenodd" vector-effect="non-scaling-stroke"/>
                        

                    </g>
                    


                    <g fill="#ebebeb" fill-opacity="1" font-family="Cantarell" font-size="14.6667" font-style="normal" font-weight="400" stroke="#808080" stroke-linecap="square" stroke-linejoin="bevel" stroke-opacity="1" stroke-width="1">
                        

                        <path d="M824.954,483.055 C824.954,484.43571000000003 823.83471,485.555 822.454,485.555 C821.0732899999999,485.555 819.954,484.43571000000003 819.954,483.055 C819.954,481.67429 821.0732899999999,480.555 822.454,480.555 C823.83471,480.555 824.954,481.67429 824.954,483.055 " fill-rule="evenodd" vector-effect="non-scaling-stroke"/>
                        

                    </g>
                    


                    <g fill="#ebebeb" fill-opacity="1" font-family="Cantarell" font-size="14.6667" font-style="normal" font-weight="400" stroke="#808080" stroke-linecap="square" stroke-linejoin="bevel" stroke-opacity="1" stroke-width="1">
                        

                        <path d="M1210.68,357.603 C1210.68,358.98371000000003 1209.56071,360.103 1208.18,360.103 C1206.7992900000002,360.103 1205.68,358.98371000000003 1205.68,357.603 C1205.68,356.22229 1206.7992900000002,355.103 1208.18,355.103 C1209.56071,355.103 1210.68,356.22229 1210.68,357.603 " fill-rule="evenodd" vector-effect="non-scaling-stroke"/>
                        

                    </g>
                    


                    <g fill="#ebebeb" fill-opacity="1" font-family="Cantarell" font-size="14.6667" font-style="normal" font-weight="400" stroke="#808080" stroke-linecap="square" stroke-linejoin="bevel" stroke-opacity="1" stroke-width="1">
                        

                        <path d="M1210.68,504.397 C1210.68,505.77771 1209.56071,506.897 1208.18,506.897 C1206.7992900000002,506.897 1205.68,505.77771 1205.68,504.397 C1205.68,503.01628999999997 1206.7992900000002,501.897 1208.18,501.897 C1209.56071,501.897 1210.68,503.01628999999997 1210.68,504.397 " fill-rule="evenodd" vector-effect="non-scaling-stroke"/>
                        

                    </g>
                    

                </g>
                <g fill="none" fill-rule="evenodd" id="ScatterPlotItem_10" stroke="black" stroke-linecap="square" stroke-linejoin="bevel" stroke-width="1">

</g>
                <g fill="none" fill-rule="evenodd" id="ScatterPlotItem_12" stroke="black" stroke-linecap="square" stroke-linejoin="bevel" stroke-width="1">

</g>
                <g fill="none" fill-rule="evenodd" id="ScatterPlotItem_14" stroke="black" stroke-linecap="square" stroke-linejoin="bevel" stroke-width="1">

</g>
                <g fill="none" fill-rule="evenodd" id="ScatterPlotItem_16" stroke="black" stroke-linecap="square" stroke-linejoin="bevel" stroke-width="1">

</g>
                <g fill="none" fill-rule="evenodd" id="ScatterPlotItem_18" stroke="black" stroke-linecap="square" stroke-linejoin="bevel" stroke-width="1">

</g>
                <g fill="none" fill-rule="evenodd" id="ScatterPlotItem_20" stroke="black" stroke-linecap="square" stroke-linejoin="bevel" stroke-width="1">

</g>
                <g fill="none" fill-rule="evenodd" id="ScatterPlotItem_22" stroke="black" stroke-linecap="square" stroke-linejoin="bevel" stroke-width="1">

</g>
                <g fill="none" fill-rule="evenodd" id="ScatterPlotItem_24" stroke="black" stroke-linecap="square" stroke-linejoin="bevel" stroke-width="1">

</g>
                <g fill="none" fill-rule="evenodd" id="ScatterPlotItem_26" stroke="black" stroke-linecap="square" stroke-linejoin="bevel" stroke-width="1">
                    


                    <g fill="#4f4f4f" fill-opacity="1" font-family="Cantarell" font-size="14.6667" font-style="normal" font-weight="400" stroke="#808080" stroke-linecap="square" stroke-linejoin="bevel" stroke-opacity="1" stroke-width="1">
                        

                        <path d="M505.126,426.0 L515.126,426.0 L515.126,436.0 L505.126,436.0 L505.126,426.0 " fill-rule="evenodd" vector-effect="non-scaling-stroke"/>
                        

                    </g>
                    


                    <g fill="#4f4f4f" fill-opacity="1" font-family="Cantarell" font-size="14.6667" font-style="normal" font-weight="400" stroke="#808080" stroke-linecap="square" stroke-linejoin="bevel" stroke-opacity="1" stroke-width="1">
                        

                        <path d="M713.345,321.891 L723.345,321.891 L723.345,331.891 L713.345,331.891 L713.345,321.891 " fill-rule="evenodd" vector-effect="non-scaling-stroke"/>
                        

                    </g>
                    


                    <g fill="#4f4f4f" fill-opacity="1" font-family="Cantarell" font-size="14.6667" font-style="normal" font-weight="400" stroke="#808080" stroke-linecap="square" stroke-linejoin="bevel" stroke-opacity="1" stroke-width="1">
                        

                        <path d="M713.345,530.109 L723.345,530.109 L723.345,540.109 L713.345,540.109 L713.345,530.109 " fill-rule="evenodd" vector-effect="non-scaling-stroke"/>
                        

                    </g>
                    


                    <g fill="#4f4f4f" fill-opacity="1" font-family="Cantarell" font-size="14.6667" font-style="normal" font-weight="400" stroke="#808080" stroke-linecap="square" stroke-linejoin="bevel" stroke-opacity="1" stroke-width="1">
                        

                        <path d="M921.564,426.0 L931.564,426.0 L931.564,436.0 L921.564,436.0 L921.564,426.0 " fill-rule="evenodd" vector-effect="non-scaling-stroke"/>
                        

                    </g>
                    


                    <g fill="#4f4f4f" fill-opacity="1" font-family="Cantarell" font-size="14.6667" font-style="normal" font-weight="400" stroke="#808080" stroke-linecap="square" stroke-linejoin="bevel" stroke-opacity="1" stroke-width="1">
                        

                        <path d="M1129.78,426.0 L1139.78,426.0 L1139.78,436.0 L1129.78,436.0 L1129.78,426.0 " fill-rule="evenodd" vector-effect="non-scaling-stroke"/>
                        

                    </g>
                    

                </g>
                <g fill="none" fill-rule="evenodd" id="ScatterPlotItem_28" stroke="black" stroke-linecap="square" stroke-linejoin="bevel" stroke-width="1">

</g>
                <g fill="none" fill-rule="evenodd" id="ScatterPlotItem_30" stroke="black" stroke-linecap="square" stroke-linejoin="bevel" stroke-width="1">
                    


                    <g fill="#ff0000" fill-opacity="1" font-family="Cantarell" font-size="14.6667" font-style="normal" font-weight="400" stroke="#808080" stroke-linecap="square" stroke-linejoin="bevel" stroke-opacity="1" stroke-width="1">
                        

                        <path d="M710.845,111.172 L718.345,126.172 L725.845,111.172 L710.845,111.172 " fill-rule="evenodd" vector-effect="non-scaling-stroke"/>
                        

                    </g>
                    


                    <g fill="#ff0000" fill-opacity="1" font-family="Cantarell" font-size="14.6667" font-style="normal" font-weight="400" stroke="#808080" stroke-linecap="square" stroke-linejoin="bevel" stroke-opacity="1" stroke-width="1">
                        

                        <path d="M1274.08,276.706 L1281.58,291.706 L1289.08,276.706 L1274.08,276.706 " fill-rule="evenodd" vector-effect="non-scaling-stroke"/>
                        

                    </g>
                    


                    <g fill="#ff0000" fill-opacity="1" font-family="Cantarell" font-size="14.6667" font-style="normal" font-weight="400" stroke="#808080" stroke-linecap="square" stroke-linejoin="bevel" stroke-opacity="1" stroke-width="1">
                        

                        <path d="M1274.08,570.294 L1281.58,585.294 L1289.08,570.294 L1274.08,570.294 " fill-rule="evenodd" vector-effect="non-scaling-stroke"/>
                        

                    </g>
                    

                </g>
                <g fill="none" fill-rule="evenodd" id="ScatterPlotItem_32" stroke="black" stroke-linecap="square" stroke-linejoin="bevel" stroke-width="1">
                    


                    <g fill="#00c800" fill-opacity="1" font-family="Cantarell" font-size="14.6667" font-style="normal" font-weight="400" stroke="#808080" stroke-linecap="square" stroke-linejoin="bevel" stroke-opacity="1" stroke-width="1">
                        

                        <path d="M86.1889,438.5 L93.6889,423.5 L101.1889,438.5 L86.1889,438.5 " fill-rule="evenodd" vector-effect="non-scaling-stroke"/>
                        

                    </g>
                    


                    <g fill="#00c800" fill-opacity="1" font-family="Cantarell" font-size="14.6667" font-style="normal" font-weight="400" stroke="#808080" stroke-linecap="square" stroke-linejoin="bevel" stroke-opacity="1" stroke-width="1">
                        

                        <path d="M294.408,438.5 L301.908,423.5 L309.408,438.5 L294.408,438.5 " fill-rule="evenodd" vector-effect="non-scaling-stroke"/>
                        

                    </g>
                    


                    <g fill="#00c800" fill-opacity="1" font-family="Cantarell" font-size="14.6667" font-style="normal" font-weight="400" stroke="#808080" stroke-linecap="square" stroke-linejoin="bevel" stroke-opacity="1" stroke-width="1">
                        

                        <path d="M710.845,750.828 L718.345,735.828 L725.845,750.828 L710.845,750.828 " fill-rule="evenodd" vector-effect="non-scaling-stroke"/>
                        

                    </g>
                    

                </g>
            </g>
            <g fill="none" fill-rule="evenodd" id="QGraphicsRectItem_1" stroke="black" stroke-linecap="square" stroke-linejoin="bevel" stroke-width="1">
                <g fill="none" font-family="Cantarell" font-size="14.6667" font-style="normal" font-weight="400" stroke="none" transform="matrix(1,0,0,1,49.2656,1)">
                    <rect height="860" vector-effect="non-scaling-stroke" width="1276.73" x="0" y="0"/>
                </g>
            </g>
        </g>
    </g>
    
    
</g>

</svg>
